<svg xmlns="http://www.w3.org/2000/svg" viewBox="0 0 251 203.84"><defs><style>.cls-1{fill:#fffefe;}.cls-2{fill:#eab314;}</style></defs><g id="Layer_2" data-name="Layer 2"><g id="Layer_1-2" data-name="Layer 1"><path id="icons8_more_than_1" data-name="icons8 more than 1" class="cls-1" d="M149.08,0,122.63,26.46l75.46,75.45-75.46,75.47,26.45,26.46L251,101.91Zm0,8.89,93,93-93,93-17.56-17.56L207,101.91,131.52,26.46Zm3.15,11.28a3.15,3.15,0,1,0,3.14,3.14A3.14,3.14,0,0,0,152.23,20.17Zm9.43,9.43a3.15,3.15,0,1,0,3.14,3.14A3.15,3.15,0,0,0,161.66,29.6ZM171.09,39a3.15,3.15,0,1,0,3.15,3.15A3.15,3.15,0,0,0,171.09,39Zm9.43,9.44a3.14,3.14,0,1,0,3.15,3.14,3.14,3.14,0,0,0-3.15-3.14ZM190,57.9A3.15,3.15,0,1,0,193.1,61h0A3.15,3.15,0,0,0,190,57.9Zm9.43,9.43a3.15,3.15,0,1,0,3.14,3.15h0a3.14,3.14,0,0,0-3.14-3.15Zm9.43,9.43A3.15,3.15,0,1,0,212,79.91h0a3.16,3.16,0,0,0-3.15-3.15Zm9.44,9.44a3.15,3.15,0,1,0,3.14,3.14h0a3.15,3.15,0,0,0-3.14-3.14Zm9.43,9.43a3.15,3.15,0,1,0,3.14,3.15h0a3.15,3.15,0,0,0-3.14-3.14ZM212,108.21a3.15,3.15,0,1,0,3.14,3.14h0a3.15,3.15,0,0,0-3.14-3.14Zm-9.43,9.43a3.15,3.15,0,1,0,3.14,3.14h0a3.15,3.15,0,0,0-3.15-3.14Zm-9.44,9.43a3.15,3.15,0,1,0,3.15,3.15h0a3.16,3.16,0,0,0-3.15-3.15Zm-9.43,9.44a3.14,3.14,0,1,0,3.14,3.14h0a3.13,3.13,0,0,0-3.14-3.14Zm-9.43,9.43a3.14,3.14,0,1,0,3.14,3.14h0A3.15,3.15,0,0,0,174.24,145.94Zm-9.43,9.43a3.15,3.15,0,1,0,3.14,3.14h0a3.15,3.15,0,0,0-3.15-3.14Zm-9.44,9.43a3.15,3.15,0,1,0,3.15,3.15h0a3.16,3.16,0,0,0-3.15-3.15Zm-9.43,9.44a3.14,3.14,0,1,0,3.14,3.14h0A3.14,3.14,0,0,0,145.94,174.24Z"/><path id="icons8_more_than_1-2" data-name="icons8 more than 1-2" class="cls-1" d="M101.92,203.84l26.45-26.46L52.91,101.92l75.46-75.46L101.92,0,0,101.92Zm0-8.9-93-93,93-93,17.56,17.57L44,101.92l75.46,75.46Zm-3.15-11.27a3.15,3.15,0,1,0-3.14-3.15A3.15,3.15,0,0,0,98.77,183.67Zm-9.43-9.43a3.15,3.15,0,1,0-3.14-3.15A3.14,3.14,0,0,0,89.34,174.24Zm-9.43-9.44a3.15,3.15,0,1,0-3.15-3.14A3.14,3.14,0,0,0,79.91,164.8Zm-9.44-9.43a3.15,3.15,0,1,0-3.14-3.14A3.15,3.15,0,0,0,70.47,155.37ZM61,145.94a3.15,3.15,0,1,0-3.14-3.15h0A3.15,3.15,0,0,0,61,145.94Zm-9.43-9.44a3.15,3.15,0,1,0-3.14-3.14h0a3.14,3.14,0,0,0,3.14,3.14Zm-9.44-9.43A3.15,3.15,0,1,0,39,123.93h0A3.15,3.15,0,0,0,42.17,127.07Zm-9.43-9.43a3.15,3.15,0,1,0-3.14-3.15h0A3.15,3.15,0,0,0,32.74,117.64Zm-9.43-9.44a3.14,3.14,0,1,0-3.14-3.14h0a3.15,3.15,0,0,0,3.14,3.15ZM39,95.63a3.15,3.15,0,1,0-3.14-3.14h0A3.15,3.15,0,0,0,39,95.63Zm9.44-9.43a3.15,3.15,0,1,0-3.15-3.15h0A3.16,3.16,0,0,0,48.47,86.2Zm9.43-9.44a3.14,3.14,0,1,0-3.15-3.14,3.13,3.13,0,0,0,3.15,3.14Zm9.43-9.42a3.15,3.15,0,1,0-3.14-3.15h0A3.15,3.15,0,0,0,67.33,67.34Zm9.43-9.44a3.14,3.14,0,1,0-3.14-3.14h0a3.16,3.16,0,0,0,3.14,3.14Zm9.44-9.43a3.15,3.15,0,1,0-3.15-3.14h0a3.16,3.16,0,0,0,3.15,3.14ZM95.63,39a3.15,3.15,0,1,0-3.15-3.15h0A3.16,3.16,0,0,0,95.63,39Zm9.43-9.44a3.14,3.14,0,1,0-3.14-3.14h0a3.15,3.15,0,0,0,3.14,3.14Z"/><path id="icons8_new_moon" data-name="icons8 new moon" class="cls-2" d="M121.87,64a37,37,0,1,0,37,37A37,37,0,0,0,121.87,64ZM104.8,86.77A2.85,2.85,0,1,1,102,89.62a2.86,2.86,0,0,1,2.84-2.85Zm2.85,28.44a5.69,5.69,0,1,1,5.69-5.69h0a5.71,5.71,0,0,1-5.69,5.69Zm28.44-22.75a5.69,5.69,0,1,1,5.69-5.69h0A5.71,5.71,0,0,1,136.09,92.46Zm8.53,17.06a2.84,2.84,0,1,1,2.84-2.84,2.84,2.84,0,0,1-2.84,2.84Z"/></g></g></svg>