<svg xmlns="http://www.w3.org/2000/svg" viewBox="0 0 73.95 73.95"><defs><style>.cls-1{fill:gold;}</style></defs><g id="Layer_2" data-name="Layer 2"><g id="Layer_1-2" data-name="Layer 1"><path id="icons8_new_moon" data-name="icons8 new moon" class="cls-1" d="M37,0A37,37,0,1,0,74,37,37,37,0,0,0,37,0ZM19.91,22.75a2.85,2.85,0,1,1-2.85,2.85,2.85,2.85,0,0,1,2.85-2.85Zm2.84,28.44a5.69,5.69,0,1,1,5.69-5.68h0a5.7,5.7,0,0,1-5.69,5.68ZM51.19,28.44a5.69,5.69,0,1,1,5.69-5.69h0A5.71,5.71,0,0,1,51.19,28.44ZM59.72,45.5a2.84,2.84,0,1,1,2.85-2.84,2.84,2.84,0,0,1-2.85,2.84h0Z"/></g></g></svg>