<?xml version="1.0" encoding="utf-8"?>
<!-- Generator: Adobe Illustrator 23.0.1, SVG Export Plug-In . SVG Version: 6.00 Build 0)  -->
<svg version="1.1" id="Layer_1" xmlns="http://www.w3.org/2000/svg" xmlns:xlink="http://www.w3.org/1999/xlink" x="0px" y="0px"
	 viewBox="0 0 1000 1000" style="enable-background:new 0 0 1000 1000;" xml:space="preserve">
<style type="text/css">
	.st0{fill:#3880FF;}
</style>
<g id="g12" transform="matrix(0.43537415,0,0,0.43537415,-16.631293,-79.368707)">
	<path id="path4" class="st0" d="M1188.2,816.6c-285.7,0-517.3,231.6-517.3,517.3s231.6,517.3,517.3,517.3s517.3-231.6,517.3-517.3
		C1703.9,1048.2,1472.3,816.6,1188.2,816.6z"/>
	<g id="g8">
		<circle id="circle6" class="st0" cx="1929.4" cy="626.6" r="236.2"/>
	</g>
	<path id="path10" class="st0" d="M2219.6,862.9l-9.3-21.6l-15.4,18.5c-38.6,43.2-88,77.2-142.1,97.3l-15.4,6.2l6.2,15.4
		c47.9,112.7,71,233.2,71,355.1c0,511.1-415.4,928-928,928s-926.5-416.9-926.5-928s415.4-928,928-928c139,0,271.8,30.9,396.8,89.6
		l13.9,6.2l6.2-15.4c23.2-54,58.7-100.4,105-137.4l18.5-15.4l-21.6-10.8c-162.1-83.4-336.6-126.6-520.4-126.6
		C561.3,195.8,51.7,705.4,51.7,1330.7s509.6,1134.9,1134.9,1134.9s1134.9-509.6,1134.9-1134.9
		C2321.6,1170.2,2287.6,1012.7,2219.6,862.9z"/>
</g>
</svg>
