<svg width="233" height="233" viewBox="0 0 233 233" fill="none" xmlns="http://www.w3.org/2000/svg">
<path d="M116.5 233C180.841 233 233 180.841 233 116.5C233 52.1588 180.841 0 116.5 0C52.1588 0 0 52.1588 0 116.5C0 180.841 52.1588 233 116.5 233Z" fill="#FFD700"/>
<path d="M183.272 100.195H169.622V176.293H183.272V100.195Z" fill="white"/>
<path d="M144.029 124.765H130.38V176.292H144.029V124.765Z" fill="white"/>
<path d="M104.445 150.358H90.7953V176.293H104.445V150.358Z" fill="white"/>
<path d="M65.2021 143.192H51.5524V176.293H65.2021V143.192Z" fill="white"/>
<path d="M186.582 59.6215C181.702 53.991 173.206 53.3426 167.541 58.2224C163.48 61.7372 161.876 67.3336 163.48 72.4522L147.169 84.0204C142.152 78.4581 133.553 78.0145 127.991 83.0649C123.759 86.8868 122.394 92.9268 124.51 98.2161L109.291 111.047C105.332 104.666 96.9718 102.686 90.5906 106.645C87.7583 108.419 85.6425 111.149 84.7212 114.357L71.8222 109.136C70.7643 101.697 63.9054 96.544 56.4663 97.5677C49.0272 98.5914 43.8744 105.485 44.8981 112.924C45.956 120.363 52.815 125.516 60.2541 124.492C65.5433 123.741 69.9112 119.987 71.4127 114.869L84.3117 120.09C85.3013 127.529 92.1262 132.75 99.5653 131.794C107.004 130.839 112.225 123.98 111.27 116.541L127.581 102.789C132.905 108.078 141.504 108.044 146.793 102.72C150.445 99.0692 151.673 93.6434 150.001 88.7295L166.142 77.2637C171.022 82.8943 179.519 83.5426 185.183 78.6628C190.848 73.7831 191.462 65.2861 186.582 59.6215Z" fill="white"/>
</svg>
