<svg width="102" height="102" viewBox="0 0 102 102" fill="none" xmlns="http://www.w3.org/2000/svg">
<circle cx="51" cy="51" r="51" fill="black"/>
<path d="M78.1298 20C74.3888 19.9868 71.3509 23.0247 71.3376 26.7657C71.3376 28.5301 72.0142 30.2281 73.2479 31.4884L60.8442 56.3091C60.5788 56.2693 60.3003 56.2295 60.0217 56.2295C59.1461 56.2295 58.2706 56.402 57.4613 56.7336L47.8302 45.8953C48.3874 44.9003 48.6925 43.786 48.7058 42.6319C48.7058 38.8776 45.6679 35.8397 41.9136 35.8397C38.1593 35.8397 35.1214 38.8776 35.1214 42.6319C35.1346 44.2503 35.7183 45.8157 36.7929 47.0362L24.9994 67.6648C24.6014 67.5852 24.1902 67.5454 23.7922 67.5454C20.0379 67.5454 17 70.5833 17 74.3376C17 78.0919 20.0379 81.1298 23.7922 81.1298C27.5465 81.1298 30.5844 78.0919 30.5844 74.3376C30.5711 72.7192 29.9874 71.1538 28.9129 69.9333L40.6931 49.3047C41.9534 49.5567 43.2667 49.4241 44.4474 48.9199L54.0785 59.7583C53.5213 60.7532 53.2295 61.8808 53.2162 63.0217C53.2029 66.776 56.2409 69.8272 59.9819 69.8404C63.7362 69.8537 66.7873 66.8158 66.8006 63.0748C66.8006 61.3104 66.124 59.5991 64.8903 58.3255L77.294 33.5048C77.5593 33.5446 77.8379 33.5844 78.1165 33.5844C81.8708 33.5844 84.9087 30.5465 84.9087 26.7922C84.9087 23.038 81.8841 20 78.1298 20Z" fill="#FFD700"/>
</svg>
