<svg xmlns="http://www.w3.org/2000/svg" width="251" height="203.836" viewBox="0 0 251 203.836">
  <g id="Group_10" data-name="Group 10" transform="translate(-853 -148.021)">
    <path id="icons8_more_than_1" d="M50.042,7.586,23.586,34.042,99.048,109.5,23.586,184.966l26.456,26.456L151.96,109.5Zm0,8.892L143.068,109.5,50.042,202.53,32.478,184.966,107.941,109.5,32.478,34.042Zm3.144,11.275A3.144,3.144,0,1,0,56.33,30.9,3.15,3.15,0,0,0,53.186,27.753Zm9.433,9.433a3.144,3.144,0,1,0,3.144,3.144A3.15,3.15,0,0,0,62.619,37.186Zm9.433,9.433A3.144,3.144,0,1,0,75.2,49.763,3.15,3.15,0,0,0,72.052,46.619Zm9.433,9.433A3.144,3.144,0,1,0,84.629,59.2,3.15,3.15,0,0,0,81.484,56.052Zm9.433,9.433a3.144,3.144,0,1,0,3.144,3.144A3.15,3.15,0,0,0,90.917,65.484Zm9.433,9.433a3.144,3.144,0,1,0,3.144,3.144A3.15,3.15,0,0,0,100.35,74.917Zm9.433,9.433a3.144,3.144,0,1,0,3.144,3.144A3.15,3.15,0,0,0,109.783,84.35Zm9.433,9.433a3.144,3.144,0,1,0,3.144,3.144A3.15,3.15,0,0,0,119.216,93.783Zm9.433,9.433a3.144,3.144,0,1,0,3.144,3.144A3.15,3.15,0,0,0,128.648,103.215Zm-15.721,12.577a3.144,3.144,0,1,0,3.144,3.144A3.15,3.15,0,0,0,112.927,115.792Zm-9.433,9.433a3.144,3.144,0,1,0,3.144,3.144A3.15,3.15,0,0,0,103.494,125.225Zm-9.433,9.433a3.144,3.144,0,1,0,3.144,3.144A3.15,3.15,0,0,0,94.061,134.658Zm-9.433,9.433a3.144,3.144,0,1,0,3.144,3.144A3.15,3.15,0,0,0,84.629,144.091ZM75.2,153.523a3.144,3.144,0,1,0,3.144,3.144A3.15,3.15,0,0,0,75.2,153.523Zm-9.433,9.433a3.144,3.144,0,1,0,3.144,3.144A3.15,3.15,0,0,0,65.763,162.956Zm-9.433,9.433a3.144,3.144,0,1,0,3.144,3.144A3.15,3.15,0,0,0,56.33,172.389ZM46.9,181.822a3.144,3.144,0,1,0,3.144,3.144A3.15,3.15,0,0,0,46.9,181.822Z" transform="translate(952.04 140.435)" fill="#fffefe"/>
    <path id="icons8_more_than_1-2" data-name="icons8_more_than_1" d="M26.456,0,0,26.456l75.462,75.462L0,177.38l26.456,26.456L128.374,101.918Zm0,8.892,93.026,93.026L26.456,194.944,8.893,177.38l75.462-75.462L8.893,26.456ZM29.6,20.167a3.144,3.144,0,1,0,3.144,3.144A3.15,3.15,0,0,0,29.6,20.167ZM39.033,29.6a3.144,3.144,0,1,0,3.144,3.144A3.15,3.15,0,0,0,39.033,29.6Zm9.433,9.433a3.144,3.144,0,1,0,3.144,3.144A3.15,3.15,0,0,0,48.466,39.033ZM57.9,48.466a3.144,3.144,0,1,0,3.144,3.144A3.15,3.15,0,0,0,57.9,48.466ZM67.331,57.9a3.144,3.144,0,1,0,3.144,3.144A3.15,3.15,0,0,0,67.331,57.9Zm9.433,9.433a3.144,3.144,0,1,0,3.144,3.144A3.15,3.15,0,0,0,76.764,67.331ZM86.2,76.764a3.144,3.144,0,1,0,3.144,3.144A3.15,3.15,0,0,0,86.2,76.764ZM95.63,86.2a3.144,3.144,0,1,0,3.144,3.144A3.15,3.15,0,0,0,95.63,86.2Zm9.433,9.433a3.144,3.144,0,1,0,3.144,3.144A3.15,3.15,0,0,0,105.062,95.629ZM89.341,108.206a3.144,3.144,0,1,0,3.144,3.144A3.15,3.15,0,0,0,89.341,108.206Zm-9.433,9.433a3.144,3.144,0,1,0,3.144,3.144A3.15,3.15,0,0,0,79.908,117.639Zm-9.433,9.433a3.144,3.144,0,1,0,3.144,3.144A3.15,3.15,0,0,0,70.476,127.072ZM61.043,136.5a3.144,3.144,0,1,0,3.144,3.144A3.15,3.15,0,0,0,61.043,136.5Zm-9.433,9.433a3.144,3.144,0,1,0,3.144,3.144A3.15,3.15,0,0,0,51.61,145.938Zm-9.433,9.433a3.144,3.144,0,1,0,3.144,3.144A3.15,3.15,0,0,0,42.177,155.37ZM32.745,164.8a3.144,3.144,0,1,0,3.144,3.144A3.15,3.15,0,0,0,32.745,164.8Zm-9.433,9.433a3.144,3.144,0,1,0,3.144,3.144A3.15,3.15,0,0,0,23.312,174.236Z" transform="translate(981.374 351.857) rotate(-180)" fill="#fffefe"/>
    <path id="icons8_new_moon" d="M37.973,1A36.973,36.973,0,1,0,74.946,37.973,37,37,0,0,0,37.973,1ZM20.909,23.753A2.844,2.844,0,1,1,18.064,26.6,2.835,2.835,0,0,1,20.909,23.753Zm2.844,28.441a5.688,5.688,0,1,1,5.688-5.688A5.7,5.7,0,0,1,23.753,52.193ZM52.193,29.441a5.688,5.688,0,1,1,5.688-5.688A5.7,5.7,0,0,1,52.193,29.441Zm8.532,17.064a2.844,2.844,0,1,1,2.844-2.844A2.836,2.836,0,0,1,60.726,46.505Z" transform="translate(936.895 211.039)" fill="gold"/>
  </g>
</svg>
