<svg width="233" height="233" viewBox="0 0 233 233" fill="none" xmlns="http://www.w3.org/2000/svg">
<path d="M116.5 233C180.841 233 233 180.841 233 116.5C233 52.1588 180.841 0 116.5 0C52.1588 0 0 52.1588 0 116.5C0 180.841 52.1588 233 116.5 233Z" fill="#FFD700"/>
<path d="M184.267 100.482H170.247V178.647H184.267V100.482Z" fill="#04070E"/>
<path d="M143.958 125.719H129.937V178.647H143.958V125.719Z" fill="#04070E"/>
<path d="M103.298 152.007H89.2774V178.647H103.298V152.007Z" fill="#04070E"/>
<path d="M62.9888 144.647H48.9681V178.647H62.9888V144.647Z" fill="#04070E"/>
<path d="M187.667 58.8054C182.655 53.0218 173.927 52.3559 168.108 57.3682C163.937 60.9786 162.29 66.727 163.937 71.9847L147.183 83.8672C142.03 78.1538 133.197 77.6982 127.484 82.8858C123.137 86.8116 121.735 93.0157 123.908 98.4487L108.275 111.628C104.209 105.073 95.6218 103.04 89.0671 107.106C86.1579 108.929 83.9847 111.733 83.0383 115.028L69.7888 109.665C68.7022 102.024 61.6568 96.7312 54.0156 97.7827C46.3743 98.8342 41.0815 105.915 42.1331 113.556C43.2197 121.197 50.265 126.49 57.9063 125.438C63.3393 124.667 67.8259 120.812 69.3682 115.554L82.6176 120.917C83.6341 128.558 90.6445 133.921 98.2857 132.939C105.927 131.958 111.29 124.913 110.308 117.271L127.063 103.146C132.531 108.579 141.364 108.544 146.797 103.075C150.548 99.325 151.809 93.7518 150.092 88.7043L166.671 76.927C171.684 82.7105 180.412 83.3765 186.23 78.3641C192.049 73.3518 192.68 64.6239 187.667 58.8054Z" fill="#04070E"/>
</svg>
